<svg width="361" height="301" viewBox="0 0 361 301" fill="none" xmlns="http://www.w3.org/2000/svg">
<path d="M135.693 256.141C183.351 256.141 221.985 217.507 221.985 169.849C221.985 122.191 183.351 83.5565 135.693 83.5565C88.0352 83.5565 49.4009 122.191 49.4009 169.849C49.4009 217.507 88.0352 256.141 135.693 256.141Z" fill="#3F3D56"/>
<path d="M102.365 288.018L76.568 283.348L84.935 229.484L110.731 234.154L102.365 288.018Z" fill="#3F3D56"/>
<path d="M162.324 243.493L136.527 238.824L128.161 285.042L153.957 289.711L162.324 243.493Z" fill="#3F3D56"/>
<path d="M171.199 292.229C172.094 287.794 163.232 282.263 151.405 279.876C139.579 277.488 129.266 279.148 128.37 283.583C127.475 288.018 136.337 293.549 148.163 295.936C159.99 298.324 170.303 296.664 171.199 292.229Z" fill="#3F3D56"/>
<path d="M117.47 290.836C118.064 286.351 108.85 281.43 96.8887 279.846C84.928 278.261 74.7501 280.613 74.1559 285.098C73.5618 289.583 82.7762 294.504 94.737 296.088C106.698 297.673 116.876 295.321 117.47 290.836Z" fill="#3F3D56"/>
<path d="M141.734 178.233C158.023 178.233 171.227 165.029 171.227 148.741C171.227 132.453 158.023 119.249 141.734 119.249C125.446 119.249 112.242 132.453 112.242 148.741C112.242 165.029 125.446 178.233 141.734 178.233Z" fill="white"/>
<path d="M153.856 148C159.285 148 163.686 143.599 163.686 138.17C163.686 132.74 159.285 128.339 153.856 128.339C148.426 128.339 144.025 132.74 144.025 138.17C144.025 143.599 148.426 148 153.856 148Z" fill="#3F3D56"/>
<path d="M218.398 167.33C241.625 162.006 259.099 151.779 257.428 144.488C255.756 137.196 235.572 135.601 212.346 140.925C189.119 146.249 171.645 156.476 173.317 163.768C174.988 171.059 195.172 172.654 218.398 167.33Z" fill="#3F3D56"/>
<path d="M49.0098 195.499C72.2364 190.175 89.7105 179.948 88.0391 172.657C86.3678 165.365 66.184 163.77 42.9574 169.094C19.7308 174.418 2.2568 184.645 3.92814 191.937C5.59948 199.228 25.7832 200.823 49.0098 195.499Z" fill="#3F3D56"/>
<path d="M111.993 203.855C111.533 206.396 111.578 209.003 112.125 211.526C112.673 214.049 113.712 216.44 115.183 218.562C116.654 220.684 118.529 222.495 120.7 223.892C122.872 225.289 125.297 226.245 127.838 226.705C130.378 227.165 132.985 227.12 135.508 226.572C138.031 226.025 140.422 224.986 142.544 223.515C144.666 222.043 146.477 220.169 147.874 217.997C149.271 215.826 150.227 213.401 150.687 210.86C152.621 200.175 144.36 196.394 133.675 194.46C122.99 192.525 113.927 193.17 111.993 203.855Z" fill="white"/>
<path d="M268.835 46.0136L217.703 96.4626L277.746 182.119L328.032 134.024L268.835 46.0136Z" fill="#FFE205"/>
<path opacity="0.1" d="M268.835 46.0136L217.703 96.4626L277.746 182.119L328.032 134.024L268.835 46.0136Z" fill="black"/>
<path d="M219.476 97.2449C220.664 95.5417 222.081 94.0066 223.689 92.6818L269.842 54.6402C269.842 54.6402 284.726 53.6547 287.072 61.1935L229.124 99.404L219.476 97.2449Z" fill="#F2F2F2"/>
<path d="M217.428 96.1314L270.506 196.338C270.506 196.338 276.198 201.157 282.537 199.339L350.468 163.015L292.602 55.0318L226.977 96.1487L217.428 96.1314Z" fill="#FFE205"/>
<path d="M283.559 68.9806L241.786 92.9254L242.286 93.7758L284.058 69.831L283.559 68.9806Z" fill="#E9CF05"/>
<path d="M240.255 103.263L239.378 103.722L283.176 185.358L284.054 184.899L240.255 103.263Z" fill="#E9CF05"/>
<path d="M333.67 161.583L289.232 187.721L289.742 188.566L334.18 162.428L333.67 161.583Z" fill="#E9CF05"/>
<path d="M290.837 71.0255L289.971 71.5049L335.718 152.112L336.584 151.633L290.837 71.0255Z" fill="#E9CF05"/>
<path d="M275.877 54.6247L223.306 93.739L223.676 94.2236L276.247 55.1093L275.877 54.6247Z" fill="#B2B2B2"/>
<path d="M279.864 55.3927L225.091 94.5276L225.451 95.0195L280.224 55.8847L279.864 55.3927Z" fill="#B2B2B2"/>
<path d="M282.936 56.5786L226.325 94.6519L226.671 95.1538L283.282 57.0805L282.936 56.5786Z" fill="#B2B2B2"/>
<path d="M86.5523 86.4965L79.4794 97.1059C79.4794 97.1059 81.837 108.01 134 107.715C186.163 107.421 190.289 97.1059 190.289 97.1059L180.564 82.96L150.798 62.6252L86.5523 86.4965Z" fill="#045097"/>
<path opacity="0.15" d="M86.5523 86.4965L79.4794 97.1059C79.4794 97.1059 85.4301 85.2694 137.593 84.9746C189.756 84.6799 190.289 97.1059 190.289 97.1059L180.564 82.96L142.406 80.5325L86.5523 86.4965Z" fill="black"/>
<path d="M237 47.1531L144.167 88.1173L31 47.1531L134.737 0L185.659 23.4793L187.483 24.3221L237 47.1531Z" fill="#045097"/>
<path opacity="0.15" d="M237 47.1531L144.167 88.1173L31 47.1531L134.737 0L185.659 23.4793L187.483 24.3221L237 47.1531Z" fill="black"/>
<path d="M87.7312 47.0057L79.4794 97.1059C79.4794 97.1059 138.715 77.95 190.289 97.1059L182.627 44.0587C182.627 44.0587 113.371 35.5122 87.7312 47.0057Z" fill="#045097"/>
<path d="M189.405 56.9727L187.637 57.0788L185.659 23.4793L187.483 24.3221L189.405 56.9727Z" fill="#EB5757"/>
<path d="M189.258 67.1932C193.978 67.1932 197.804 64.5543 197.804 61.299C197.804 58.0438 193.978 55.4049 189.258 55.4049C184.537 55.4049 180.711 58.0438 180.711 61.299C180.711 64.5543 184.537 67.1932 189.258 67.1932Z" fill="#EB5757"/>
</svg>
