<svg width="361" height="301" viewBox="0 0 361 301" fill="none" xmlns="http://www.w3.org/2000/svg">
<g id="Person">
<g id="Body">
<path id="Vector" d="M134.791 256.141C182.449 256.141 221.083 217.507 221.083 169.849C221.083 122.191 182.449 83.5565 134.791 83.5565C87.1333 83.5565 48.499 122.191 48.499 169.849C48.499 217.507 87.1333 256.141 134.791 256.141Z" fill="#3F3D56"/>
<path id="Vector_2" d="M101.463 288.018L75.6661 283.348L84.0331 229.484L109.829 234.154L101.463 288.018Z" fill="#3F3D56"/>
<path id="Vector_3" d="M161.422 243.493L135.626 238.823L127.259 285.042L153.055 289.711L161.422 243.493Z" fill="#3F3D56"/>
<path id="Vector_4" d="M170.297 292.229C171.192 287.794 162.33 282.263 150.504 279.876C138.677 277.488 128.364 279.148 127.468 283.583C126.573 288.018 135.435 293.549 147.261 295.936C159.088 298.324 169.401 296.664 170.297 292.229Z" fill="#3F3D56"/>
<path id="Vector_5" d="M116.568 290.836C117.162 286.351 107.948 281.43 95.9868 279.846C84.026 278.261 73.8482 280.613 73.254 285.098C72.6598 289.583 81.8743 294.504 93.8351 296.088C105.796 297.673 115.974 295.321 116.568 290.836Z" fill="#3F3D56"/>
<path id="Vector_6" d="M140.832 178.233C157.121 178.233 170.325 165.029 170.325 148.741C170.325 132.453 157.121 119.249 140.832 119.249C124.544 119.249 111.34 132.453 111.34 148.741C111.34 165.029 124.544 178.233 140.832 178.233Z" fill="white"/>
<path id="Eye" d="M152.954 148.001C158.383 148.001 162.784 143.599 162.784 138.17C162.784 132.74 158.383 128.339 152.954 128.339C147.524 128.339 143.123 132.74 143.123 138.17C143.123 143.599 147.524 148.001 152.954 148.001Z" fill="#3F3D56"/>
<path id="Vector_7" d="M48.1079 195.499C71.3345 190.175 88.8086 179.948 87.1372 172.657C85.4659 165.365 65.2821 163.77 42.0555 169.094C18.8289 174.418 1.35489 184.645 3.02623 191.937C4.69757 199.228 24.8813 200.823 48.1079 195.499Z" fill="#3F3D56"/>
<path id="Vector_8" d="M111.091 203.855C110.631 206.396 110.676 209.003 111.223 211.526C111.771 214.049 112.81 216.44 114.281 218.562C115.752 220.684 117.627 222.495 119.799 223.892C121.97 225.289 124.395 226.245 126.936 226.705C129.476 227.165 132.083 227.12 134.606 226.572C137.129 226.025 139.52 224.986 141.642 223.515C143.764 222.043 145.575 220.169 146.972 217.997C148.369 215.826 149.325 213.401 149.785 210.86C151.719 200.175 143.458 196.394 132.773 194.46C122.088 192.525 113.025 193.17 111.091 203.855Z" fill="white"/>
</g>
<g id="Book">
<path id="Vector_9" d="M267.933 46.0136L216.802 96.4627L276.844 182.119L327.13 134.024L267.933 46.0136Z" fill="#FFE205"/>
<path id="Vector_10" opacity="0.1" d="M267.933 46.0136L216.802 96.4627L276.844 182.119L327.13 134.024L267.933 46.0136Z" fill="black"/>
<path id="Vector_11" d="M218.574 97.2449C219.762 95.5417 221.179 94.0066 222.787 92.6818L268.94 54.6402C268.94 54.6402 283.825 53.6547 286.17 61.1935L228.222 99.404L218.574 97.2449Z" fill="#F2F2F2"/>
<path id="Vector_12" d="M216.526 96.1315L269.604 196.338C269.604 196.338 275.296 201.157 281.635 199.339L349.566 163.015L291.7 55.0318L226.075 96.1487L216.526 96.1315Z" fill="#FFE205"/>
<g id="Borders">
<path id="Vector_13" d="M282.657 68.9806L240.884 92.9254L241.384 93.7758L283.156 69.831L282.657 68.9806Z" fill="#E9CF05"/>
<path id="Vector_14" d="M239.353 103.263L238.476 103.722L282.274 185.358L283.152 184.899L239.353 103.263Z" fill="#E9CF05"/>
<path id="Vector_15" d="M332.769 161.583L288.33 187.721L288.84 188.566L333.278 162.428L332.769 161.583Z" fill="#E9CF05"/>
<path id="Vector_16" d="M289.935 71.0255L289.069 71.5049L334.816 152.112L335.682 151.633L289.935 71.0255Z" fill="#E9CF05"/>
</g>
<g id="Top Lines">
<path id="Vector_17" d="M274.975 54.6247L222.405 93.7391L222.774 94.2236L275.345 55.1093L274.975 54.6247Z" fill="#B2B2B2"/>
<path id="Vector_18" d="M278.962 55.3927L224.189 94.5276L224.549 95.0196L279.322 55.8847L278.962 55.3927Z" fill="#B2B2B2"/>
<path id="Vector_19" d="M282.034 56.5786L225.423 94.6519L225.769 95.1538L282.38 57.0805L282.034 56.5786Z" fill="#B2B2B2"/>
</g>
<path id="Vector_20" d="M217.496 167.33C240.723 162.006 258.197 151.78 256.526 144.488C254.854 137.196 234.67 135.601 211.444 140.925C188.217 146.249 170.743 156.476 172.415 163.768C174.086 171.059 194.27 172.654 217.496 167.33Z" fill="#3F3D56"/>
</g>
<g id="Hat">
<path id="Vector_21" d="M85.6504 86.4964L78.5775 97.1059C78.5775 97.1059 80.9351 108.01 133.098 107.715C185.261 107.421 189.387 97.1059 189.387 97.1059L179.662 82.9599L149.896 62.6252L85.6504 86.4964Z" fill="#045097"/>
<path id="Vector_22" opacity="0.15" d="M85.6504 86.4965L78.5775 97.1059C78.5775 97.1059 84.5282 85.2694 136.691 84.9746C188.854 84.6799 189.387 97.1059 189.387 97.1059L179.662 82.96L141.504 80.5325L85.6504 86.4965Z" fill="black"/>
<path id="Vector_23" d="M236.098 47.1531L143.265 88.1173L30.0981 47.1531L133.835 0L184.757 23.4793L186.581 24.3221L236.098 47.1531Z" fill="#045097"/>
<path id="Vector_24" opacity="0.15" d="M236.098 47.1531L143.265 88.1173L30.0981 47.1531L133.835 0L184.757 23.4793L186.581 24.3221L236.098 47.1531Z" fill="black"/>
<path id="Vector_25" d="M86.8293 47.0057L78.5775 97.1059C78.5775 97.1059 137.814 77.95 189.387 97.1059L181.725 44.0587C181.725 44.0587 112.469 35.5122 86.8293 47.0057Z" fill="#045097"/>
<g id="String">
<path id="Vector_26" d="M188.503 56.9727L186.735 57.0788L184.757 23.4792L186.581 24.3221L188.503 56.9727Z" fill="#EB5757"/>
<path id="Vector_27" d="M188.356 67.1932C193.076 67.1932 196.902 64.5543 196.902 61.299C196.902 58.0438 193.076 55.4049 188.356 55.4049C183.636 55.4049 179.809 58.0438 179.809 61.299C179.809 64.5543 183.636 67.1932 188.356 67.1932Z" fill="#EB5757"/>
</g>
</g>
</g>
</svg>
