<svg width="160" height="113" viewBox="0 0 160 113" fill="none" xmlns="http://www.w3.org/2000/svg">
<g clip-path="url(#clip0)">
<path d="M129.902 4.1885C127.788 0.200851 123.606 0.0150112 123.606 0.0150112C123.606 0.0150112 119.531 -0.566795 116.916 5.50643C114.48 11.1672 111.117 16.6328 116.375 17.9579L117.325 14.6576L117.913 18.2036C118.662 18.2637 119.413 18.2781 120.163 18.2465C125.794 18.0436 131.157 18.3059 130.984 16.05C130.755 13.051 131.936 8.02541 129.902 4.1885Z" fill="#2F2E41"/>
<path d="M119.112 106.793C136.962 106.793 151.431 105.856 151.431 104.699C151.431 103.543 136.962 102.605 119.112 102.605C101.263 102.605 86.7935 103.543 86.7935 104.699C86.7935 105.856 101.263 106.793 119.112 106.793Z" fill="#3F3D56"/>
<path d="M41.9221 107.277C64.5524 107.277 82.8979 106.339 82.8979 105.183C82.8979 104.026 64.5524 103.089 41.9221 103.089C19.2918 103.089 0.946289 104.026 0.946289 105.183C0.946289 106.339 19.2918 107.277 41.9221 107.277Z" fill="#3F3D56"/>
<path d="M91.4103 112.109C111.57 112.109 127.913 111.171 127.913 110.015C127.913 108.858 111.57 107.921 91.4103 107.921C71.2502 107.921 54.9072 108.858 54.9072 110.015C54.9072 111.171 71.2502 112.109 91.4103 112.109Z" fill="#3F3D56"/>
<path d="M106.598 96.1831C106.731 101.266 104.07 103.129 100.732 103.238C100.654 103.241 100.577 103.242 100.5 103.243C100.345 103.244 100.192 103.241 100.04 103.234C97.0205 103.094 94.6303 101.305 94.5066 96.5774C94.3786 91.685 99.8179 85.3285 100.226 84.8583L100.227 84.8578C100.242 84.8399 100.25 84.8309 100.25 84.8309C100.25 84.8309 106.465 91.1003 106.598 96.1831Z" fill="#1FCF10"/>
<path d="M100.491 102.468L102.612 98.9467L100.495 102.847L100.5 103.243C100.345 103.244 100.192 103.241 100.04 103.234L100.145 98.1411L100.142 98.1018L100.146 98.0942L100.156 97.6129L97.8335 93.8482L100.153 97.2527L100.162 97.3544L100.241 93.5064L98.2349 89.6032L100.247 92.8304L100.226 84.8583L100.226 84.8317L100.227 84.8578L100.36 91.141L102.188 88.5887L100.366 91.6822L100.406 95.1242L102.088 91.765L100.412 95.6302L100.434 97.5442L102.881 92.8648L100.441 98.2119L100.491 102.468Z" fill="#3F3D56"/>
<path d="M12.0935 97.955C12.2265 103.038 9.56606 104.901 6.22728 105.01C6.14972 105.013 6.07251 105.014 5.99566 105.015C5.84082 105.016 5.68749 105.013 5.53567 105.006C2.51607 104.866 0.125889 103.077 0.00222278 98.3492C-0.125755 93.4569 5.3135 87.1003 5.72159 86.6301L5.72231 86.6296C5.73781 86.6117 5.74575 86.6028 5.74575 86.6028C5.74575 86.6028 11.9606 92.8721 12.0935 97.955Z" fill="#1FCF10"/>
<path d="M5.98672 104.24L8.10763 100.718L5.99105 104.618L5.99548 105.015C5.84064 105.016 5.68731 105.013 5.53549 105.006L5.64068 99.9129L5.63779 99.8736L5.64168 99.866L5.65175 99.3847L3.3291 95.62L5.64901 99.0245L5.65724 99.1262L5.73669 95.2782L3.73055 91.375L5.7424 94.6022L5.7214 86.6301L5.72145 86.6035L5.72213 86.6296L5.8553 92.9127L7.68366 90.3605L5.86129 93.454L5.9012 96.896L7.58366 93.5368L5.90738 97.402L5.9296 99.316L8.37635 94.6366L5.93704 99.9836L5.98672 104.24Z" fill="#3F3D56"/>
<path d="M147.959 100.979L158.646 83.2368L147.981 102.887L148.003 104.884C147.223 104.891 146.451 104.876 145.686 104.84L146.216 79.1778L146.201 78.9798L146.221 78.9416L146.271 76.5166L134.568 57.5472L146.258 74.7017L146.299 75.2142L146.699 55.8252L136.591 36.1582L146.728 52.419L146.622 12.2499L146.623 12.1162L146.626 12.2477L147.297 43.9064L156.51 31.0466L147.327 46.6337L147.528 63.9768L156.006 47.0506L147.56 66.5265L147.671 76.1701L160 52.5922L147.709 79.5344L147.959 100.979Z" fill="#3F3D56"/>
<path d="M117.376 41.9553C117.376 41.9553 114.9 49.3641 116.485 55.9988C118.07 62.6335 122.23 78.4462 122.23 78.4462L127.776 90.7204C127.776 90.7204 130.946 93.1532 132.828 88.1771L127.776 77.5616L132.721 58.3812C133.661 54.7946 133.861 51.017 133.305 47.3319C133.024 45.5107 132.543 43.6886 131.738 42.287C131.738 42.287 118.862 40.0755 117.376 41.9553Z" fill="#2F2E41"/>
<path d="M122.527 77.1193L119.555 94.3695C119.555 94.3695 122.626 96.8023 124.409 96.0282L127.38 83.3117L122.527 77.1193Z" fill="#2F2E41"/>
<path d="M119.952 94.0378L116.782 101.225L115.494 104.1C115.494 104.1 108.462 111.62 114.009 110.846C119.555 110.072 119.952 108.966 119.952 108.966L121.041 107.197L121.338 107.86C121.338 107.86 122.923 106.423 122.923 105.98C122.923 105.538 122.329 101.004 122.329 101.004L123.121 95.6965L119.952 94.0378Z" fill="#2F2E41"/>
<path d="M128.965 90.6099L130.649 95.6965L129.659 100.12C129.659 100.12 125.796 105.98 129.758 105.649C133.72 105.317 134.413 102.11 134.413 102.11L135.007 100.009L135.502 100.23L136.988 97.2446L134.215 92.2685L132.333 88.6194L128.965 90.6099Z" fill="#2F2E41"/>
<path d="M139.464 48.1477L140.059 51.5756C140.059 51.5756 142.535 57.768 140.059 57.9892C137.583 58.2104 137.583 51.9074 137.583 51.9074L137.781 49.3641L139.464 48.1477Z" fill="#FFB8B8"/>
<path d="M96.7739 30.3446L93.3072 29.6811C93.3072 29.6811 86.4728 25.7003 86.5719 28.5753C86.6709 31.4504 93.01 32.7773 93.01 32.7773L94.892 33.5513L96.7739 30.3446Z" fill="#FFB8B8"/>
<path d="M123.319 14.2001C125.836 14.2001 127.876 11.9228 127.876 9.1135C127.876 6.30424 125.836 4.02689 123.319 4.02689C120.803 4.02689 118.763 6.30424 118.763 9.1135C118.763 11.9228 120.803 14.2001 123.319 14.2001Z" fill="#FFB8B8"/>
<path d="M121.338 12.5414C121.338 12.5414 122.329 16.7434 120.546 17.628C118.763 18.5127 118.565 19.1761 118.565 19.1761C118.565 19.1761 130.451 23.3781 131.342 18.4021L127.281 15.8588C127.281 15.8588 126.885 12.3203 126.489 12.0991C126.093 11.878 121.338 12.5414 121.338 12.5414Z" fill="#FFB8B8"/>
<path d="M135.513 21.3524C135.442 21.0184 135.258 20.7279 135 20.5421C133.966 19.7983 131.274 17.9096 130.907 18.1293C130.451 18.4021 126.954 20.2707 120.036 17.8989C120.036 17.8989 114.801 19.5079 113.315 20.6137C111.83 21.7195 108.724 25.2889 108.724 25.2889C108.724 25.2889 94.6297 27.8278 94.7287 29.1547C94.8278 30.4817 93.7188 33.6649 93.7188 33.6649C93.7188 33.6649 102.953 35.7588 112.331 31.4098C112.331 31.4098 115.296 39.0803 114.999 40.5178C114.702 41.9553 114.702 42.9505 117.079 42.7294C119.456 42.5082 123.121 41.8447 125.003 42.1765C126.885 42.5082 133.918 43.0611 133.918 42.5082V39.0803C133.918 39.0803 136.097 51.0228 137.483 51.0228C138.87 51.0228 141.017 50.0894 141.909 46.5509L137.58 31.0876L135.513 21.3524Z" fill="#D0CDE1"/>
<path opacity="0.2" d="M124.593 54.0128L122.147 77.6918L122.577 77.7472L125.023 54.0682L124.593 54.0128Z" fill="black"/>
<path d="M128.968 3.98597L124.836 1.56967L119.13 2.55819L117.95 8.37916L120.888 8.25287L121.709 6.11443V8.2176L123.065 8.15945L123.852 4.75479L124.344 8.37916L129.165 8.2693L128.968 3.98597Z" fill="#2F2E41"/>
<path d="M84.9794 20.0547C84.8177 19.8733 84.6256 19.7293 84.414 19.6309C84.2024 19.5324 83.9755 19.4816 83.7463 19.4813C83.5171 19.4809 83.29 19.5311 83.0782 19.6288C82.8664 19.7266 82.6739 19.8701 82.5118 20.051C82.3497 20.232 82.2212 20.4469 82.1337 20.6834C82.0461 20.9198 82.0012 21.1733 82.0015 21.4292C82.0018 21.6851 82.0473 21.9384 82.1355 22.1747C82.2236 22.4109 82.3526 22.6254 82.5152 22.8058L84.9794 25.5569L87.4436 22.8058C87.769 22.4407 87.9514 21.9464 87.9508 21.4313C87.9502 20.9163 87.7667 20.4225 87.4404 20.0583C87.1142 19.6941 86.6719 19.4892 86.2106 19.4885C85.7492 19.4879 85.3065 19.6915 84.9794 20.0547Z" fill="#FF6584"/>
<path d="M91.4716 10.3902C91.3099 10.2088 91.1178 10.0647 90.9062 9.9663C90.6946 9.86789 90.4677 9.81706 90.2385 9.81671C90.0093 9.81637 89.7822 9.86652 89.5704 9.96429C89.3586 10.0621 89.1661 10.2055 89.004 10.3865C88.8419 10.5674 88.7134 10.7823 88.6258 11.0188C88.5383 11.2553 88.4933 11.5087 88.4937 11.7647C88.494 12.0206 88.5395 12.2739 88.6276 12.5101C88.7158 12.7463 88.8448 12.9608 89.0073 13.1413L91.4716 15.8924L93.9358 13.1413C94.2612 12.7761 94.4436 12.2818 94.443 11.7668C94.4424 11.2517 94.2588 10.758 93.9326 10.3938C93.6064 10.0296 93.1641 9.82465 92.7028 9.82399C92.2414 9.82332 91.7986 10.0269 91.4716 10.3902Z" fill="#FF6584"/>
<path d="M81.9491 1.36998C81.7115 1.10446 81.4294 0.893805 81.119 0.75004C80.8085 0.606274 80.4756 0.532218 80.1395 0.532105C79.8034 0.531991 79.4705 0.605821 79.1599 0.749376C78.8494 0.892931 78.5672 1.1034 78.3295 1.36875C78.0918 1.6341 77.9033 1.94914 77.7747 2.29586C77.6461 2.64259 77.58 3.0142 77.5801 3.38946C77.5802 3.76473 77.6465 4.13629 77.7753 4.48293C77.9041 4.82956 78.0928 5.14447 78.3306 5.40966L81.9491 9.44935L85.5676 5.40966C85.8054 5.14447 85.9941 4.82956 86.1229 4.48293C86.2516 4.13629 86.318 3.76473 86.3181 3.38946C86.3182 3.0142 86.252 2.64259 86.1234 2.29586C85.9949 1.94914 85.8063 1.6341 85.5687 1.36875C85.331 1.1034 85.0488 0.892931 84.7382 0.749376C84.4276 0.605821 84.0948 0.531991 83.7586 0.532105C83.4225 0.532218 83.0897 0.606274 82.7792 0.75004C82.4687 0.893805 82.1866 1.10446 81.9491 1.36998Z" fill="#FF6584"/>
<path d="M75.1066 40.43H9.8916V104.86H75.1066V40.43Z" fill="#3F3D56"/>
<path d="M69.9125 46.8731H15.23V85.2091H69.9125V46.8731Z" fill="white"/>
<path d="M47.1765 85.4379C47.2414 85.4153 47.3049 85.3928 47.3699 85.3702C49.9598 84.4397 52.2061 82.5891 53.7662 80.1006C55.3263 77.6121 56.1146 74.6222 56.0109 71.587C55.9622 70.1298 55.706 68.6905 55.2519 67.3233C54.2473 64.2915 52.3279 61.7451 49.8237 60.1222C47.3195 58.4992 44.387 57.901 41.5306 58.4305C38.6741 58.9599 36.0721 60.584 34.1721 63.0233C32.272 65.4626 31.1926 68.5648 31.1195 71.7964C31.0543 74.7596 31.8399 77.6684 33.3613 80.0976C34.8828 82.5268 37.0604 84.349 39.5758 85.2977C39.6407 85.3235 39.7071 85.3477 39.772 85.3702H43.343L47.1765 85.4379Z" fill="#2F2E41"/>
<path d="M39.9667 82.4886L39.5757 85.2978L39.5656 85.3702H35.7378L36.0393 83.2054L36.2442 81.7364L39.9667 82.4886Z" fill="#2F2E41"/>
<path d="M47.1763 85.4378L47.1864 85.3702L47.41 83.993L43.6876 83.2408L43.3428 85.3702L47.1763 85.4378Z" fill="#2F2E41"/>
<path d="M44.4397 73.4816C46.7898 73.4816 48.6949 71.3547 48.6949 68.7311C48.6949 66.1075 46.7898 63.9806 44.4397 63.9806C42.0897 63.9806 40.1846 66.1075 40.1846 68.7311C40.1846 71.3547 42.0897 73.4816 44.4397 73.4816Z" fill="white"/>
<path d="M46.1884 68.6118C46.9718 68.6118 47.6068 67.9029 47.6068 67.0283C47.6068 66.1538 46.9718 65.4448 46.1884 65.4448C45.4051 65.4448 44.77 66.1538 44.77 67.0283C44.77 67.9029 45.4051 68.6118 46.1884 68.6118Z" fill="#3F3D56"/>
<path d="M33.7461 57.0098C33.5589 51.8639 37.5314 47.5054 42.619 47.2747C47.7067 47.044 51.9828 51.0284 52.17 56.1743C52.3573 61.3201 48.8207 62.4893 43.7331 62.72C38.6455 62.9507 33.9333 62.1556 33.7461 57.0098Z" fill="#1FCF10"/>
<path d="M55.5006 71.7254C58.8518 70.8678 61.373 69.2205 61.1318 68.046C60.8907 66.8715 57.9785 66.6146 54.6274 67.4722C51.2762 68.3297 48.7551 69.977 48.9962 71.1515C49.2373 72.326 52.1495 72.5829 55.5006 71.7254Z" fill="#2F2E41"/>
<path d="M31.0612 76.2627C34.4123 75.4052 36.9335 73.7579 36.6924 72.5834C36.4512 71.4089 33.5391 71.152 30.1879 72.0095C26.8368 72.8671 24.3156 74.5144 24.5567 75.6889C24.7979 76.8634 27.71 77.1203 31.0612 76.2627Z" fill="#2F2E41"/>
<path d="M40.1487 77.6087C40.0821 78.0181 40.0884 78.4381 40.1672 78.8448C40.246 79.2514 40.3959 79.6367 40.6081 79.9787C40.8204 80.3207 41.091 80.6127 41.4043 80.8379C41.7177 81.0631 42.0678 81.2172 42.4345 81.2913C42.8012 81.3654 43.1774 81.3581 43.5416 81.2698C43.9059 81.1816 44.2509 81.014 44.5571 80.7768C44.8633 80.5396 45.1246 80.2374 45.3261 79.8874C45.5277 79.5374 45.6654 79.1465 45.7316 78.737C46.0107 77.0159 44.8187 76.4069 43.277 76.0953C41.7354 75.7837 40.4278 75.8876 40.1487 77.6087Z" fill="white"/>
<path d="M48.7032 91.0079H15.23V93.2629H48.7032V91.0079Z" fill="#1FCF10"/>
<path d="M69.9125 95.8401H15.23V98.0952H69.9125V95.8401Z" fill="#1FCF10"/>
</g>
<defs>
<clipPath id="clip0">
<rect width="160" height="112.109" fill="white"/>
</clipPath>
</defs>
</svg>
