<svg width="258" height="296" viewBox="0 0 258 296" fill="none" xmlns="http://www.w3.org/2000/svg">
<g clip-path="url(#clip0)">
<path d="M233.989 242.341C210.829 274.257 172.435 295.127 128.991 295.127C85.0254 295.127 46.2341 273.755 23.1677 241.189C43.0319 204.759 83.3646 213.784 128.991 213.784C175.095 213.784 214.335 205.286 233.989 242.341Z" fill="#FFE205"/>
<path d="M128.991 222.512C172.847 222.512 210.49 214.826 230.974 245.971C232.005 244.664 233.01 243.338 233.989 241.992C214.335 204.937 175.095 213.435 128.991 213.435C83.3646 213.435 43.0319 204.41 23.1677 240.84C24.1497 242.227 25.1607 243.592 26.2006 244.936C46.9563 214.344 85.5765 222.512 128.991 222.512Z" fill="#3F3D56"/>
<path d="M128.991 296C97.5453 295.977 67.1945 284.856 43.6583 264.735C20.1222 244.614 5.02619 216.882 1.21531 186.765C-2.59558 156.648 5.14185 126.226 22.9694 101.232C40.797 76.2382 67.4834 58.3991 97.9994 51.0765C128.515 43.7539 160.754 47.4536 188.638 61.4783C216.523 75.503 238.128 98.8841 249.382 127.215C260.636 155.546 260.762 186.871 249.736 215.285C238.71 243.7 217.293 267.242 189.522 281.475C170.88 291.02 150.096 296.007 128.991 296ZM128.991 48.129C109.567 48.1375 90.3997 52.4145 72.944 60.6354C55.4883 68.8564 40.2024 80.8054 28.246 95.5758C16.2897 110.346 7.97694 127.55 3.93848 145.882C-0.0999699 164.215 0.241946 183.194 4.93829 201.379C9.63464 219.565 18.562 236.48 31.0432 250.84C43.5244 265.201 59.2314 276.63 76.9727 284.261C94.714 291.891 114.024 295.523 133.436 294.88C152.849 294.237 171.855 289.337 189.012 280.55C206.863 271.35 222.22 258.226 233.841 242.24C246.226 225.119 253.913 205.25 256.187 184.487C258.461 163.725 255.246 142.744 246.844 123.504C237.067 101.145 220.669 82.0667 199.705 68.6587C178.741 55.2507 154.142 48.1093 128.991 48.129Z" fill="#3F3D56"/>
<path d="M128.991 295.302C112.145 295.305 95.4644 292.107 79.9005 285.889C64.3367 279.67 50.1951 270.554 38.2836 259.061C26.3722 247.568 16.9242 233.924 10.4796 218.906C4.0349 203.889 0.719797 187.794 0.723651 171.541C0.723651 103.299 58.264 47.7799 128.991 47.7799C199.717 47.7799 257.258 103.299 257.258 171.541C257.316 196.91 249.24 221.676 234.137 242.443C222.299 258.754 206.563 272.073 188.261 281.274C169.958 290.475 149.628 295.287 128.991 295.302ZM128.991 48.8273C58.8626 48.8273 1.80913 103.876 1.80913 171.541C1.81117 197.648 10.4419 223.074 26.447 244.124C42.4521 265.174 64.9975 280.751 90.8064 288.591C116.615 296.43 144.343 296.124 169.959 287.717C195.576 279.31 217.746 263.24 233.248 241.842C248.222 221.251 256.23 196.695 256.173 171.541C256.173 103.876 199.119 48.8273 128.991 48.8273Z" fill="#3F3D56"/>
<path d="M47.761 104.511C66.8448 104.511 82.3153 89.584 82.3153 71.1706C82.3153 52.7572 66.8448 37.8302 47.761 37.8302C28.6771 37.8302 13.2066 52.7572 13.2066 71.1706C13.2066 89.584 28.6771 104.511 47.761 104.511Z" fill="#FF6584"/>
<path d="M193.718 114.16C226.39 114.16 252.877 88.6047 252.877 57.0802C252.877 25.5557 226.39 0 193.718 0C161.046 0 134.56 25.5557 134.56 57.0802C134.56 88.6047 161.046 114.16 193.718 114.16Z" fill="#FFE205"/>
<path opacity="0.2" d="M237.724 18.9551C243.242 31.4096 243.991 45.3515 239.836 58.2895C235.681 71.2275 226.894 82.3185 215.044 89.5806C203.194 96.8428 189.054 99.8028 175.151 97.9317C161.247 96.0607 148.486 89.4805 139.148 79.3671C142.519 86.9762 147.564 93.7873 153.934 99.3284C160.304 104.869 167.846 109.008 176.039 111.457C184.231 113.907 192.877 114.608 201.378 113.514C209.879 112.419 218.032 109.554 225.271 105.117C232.511 100.68 238.664 94.7778 243.305 87.8187C247.945 80.8596 250.963 73.0102 252.147 64.8144C253.332 56.6185 252.655 48.2722 250.165 40.3536C247.674 32.435 243.429 25.1336 237.724 18.9551Z" fill="black"/>
<path d="M193.881 57.0802H194.043L196.968 218.912H190.793L193.881 57.0802Z" fill="#3F3D56"/>
<path d="M204.652 145.229L203.289 142.731L193.51 147.699L194.873 150.197L204.652 145.229Z" fill="#3F3D56"/>
<path d="M184.185 211.903C184.185 211.903 184.435 206.851 189.557 207.439L184.185 211.903Z" fill="#3F3D56"/>
<path d="M182.738 207.096C184.154 207.096 185.301 205.988 185.301 204.622C185.301 203.256 184.154 202.149 182.738 202.149C181.322 202.149 180.174 203.256 180.174 204.622C180.174 205.988 181.322 207.096 182.738 207.096Z" fill="#FFE205"/>
<path d="M183.044 208.788H182.321V213.675H183.044V208.788Z" fill="#3F3D56"/>
<path d="M217.835 221.329C217.835 221.329 218.085 216.278 223.207 216.865L217.835 221.329Z" fill="#3F3D56"/>
<path d="M216.387 216.522C217.803 216.522 218.951 215.414 218.951 214.048C218.951 212.682 217.803 211.575 216.387 211.575C214.972 211.575 213.824 212.682 213.824 214.048C213.824 215.414 214.972 216.522 216.387 216.522Z" fill="#FFE205"/>
<path d="M216.694 218.214H215.97V223.101H216.694V218.214Z" fill="#3F3D56"/>
<path d="M38.0075 223.424C38.0075 223.424 38.2573 218.372 43.3795 218.959L38.0075 223.424Z" fill="#3F3D56"/>
<path d="M36.5602 218.617C37.976 218.617 39.1238 217.509 39.1238 216.143C39.1238 214.777 37.976 213.669 36.5602 213.669C35.1443 213.669 33.9966 214.777 33.9966 216.143C33.9966 217.509 35.1443 218.617 36.5602 218.617Z" fill="#FFE205"/>
<path d="M36.8667 220.308H36.143V225.196H36.8667V220.308Z" fill="#3F3D56"/>
<path d="M204.447 215.394C204.447 215.394 204.697 210.343 209.819 210.93L204.447 215.394Z" fill="#3F3D56"/>
<path d="M203 210.587C204.416 210.587 205.564 209.48 205.564 208.113C205.564 206.747 204.416 205.64 203 205.64C201.584 205.64 200.436 206.747 200.436 208.113C200.436 209.48 201.584 210.587 203 210.587Z" fill="#FFE205"/>
<path d="M203.306 212.279H202.583V217.166H203.306V212.279Z" fill="#3F3D56"/>
<path d="M65.7383 73.1448L69.0692 70.5743C66.4816 70.2989 65.4184 71.6605 64.9833 72.7383C62.9617 71.9283 60.761 72.9898 60.761 72.9898L67.4255 75.3242C67.0893 74.4578 66.504 73.7017 65.7383 73.1448Z" fill="#3F3D56"/>
<path d="M116.394 99.3284L119.725 96.7579C117.137 96.4824 116.074 97.8441 115.639 98.9218C113.617 98.1119 111.417 99.1734 111.417 99.1734L118.081 101.508C117.745 100.641 117.16 99.8853 116.394 99.3284Z" fill="#3F3D56"/>
<path d="M61.7582 121.672L65.0891 119.101C62.5015 118.826 61.4383 120.187 61.0032 121.265C58.9817 120.455 56.781 121.517 56.781 121.517L63.4454 123.851C63.1092 122.985 62.5239 122.229 61.7582 121.672Z" fill="#3F3D56"/>
<path d="M146.589 263.255C147.523 262.519 146.26 259.655 143.769 256.856C141.277 254.058 138.5 252.385 137.565 253.121C136.631 253.857 137.894 256.721 140.385 259.52C142.877 262.318 145.654 263.991 146.589 263.255Z" fill="#2F2E41"/>
<path d="M127.127 269.11C134.89 269.11 141.183 263.193 141.183 255.893C141.183 248.594 134.89 242.676 127.127 242.676C119.364 242.676 113.071 248.594 113.071 255.893C113.071 263.193 119.364 269.11 127.127 269.11Z" fill="#2F2E41"/>
<path d="M133.076 266.266H128.806V273.46H133.076V266.266Z" fill="#2F2E41"/>
<path d="M124.536 266.266H120.266V273.46H124.536V266.266Z" fill="#2F2E41"/>
<path d="M129.518 274.799C131.483 274.799 133.076 274.237 133.076 273.544C133.076 272.851 131.483 272.289 129.518 272.289C127.553 272.289 125.959 272.851 125.959 273.544C125.959 274.237 127.553 274.799 129.518 274.799Z" fill="#2F2E41"/>
<path d="M120.978 274.631C122.943 274.631 124.536 274.069 124.536 273.376C124.536 272.683 122.943 272.122 120.978 272.122C119.012 272.122 117.419 272.683 117.419 273.376C117.419 274.069 119.012 274.631 120.978 274.631Z" fill="#2F2E41"/>
<path d="M122.714 239.279C123.969 234.526 129.509 231.729 135.088 233.032C140.667 234.334 144.172 239.243 142.917 243.996C141.662 248.749 137.498 248.764 131.919 247.462C126.34 246.159 121.458 244.032 122.714 239.279Z" fill="white"/>
<path d="M117.645 252.592C118.168 251.557 115.748 249.45 112.241 247.886C108.734 246.322 105.468 245.893 104.945 246.928C104.423 247.964 106.843 250.071 110.35 251.635C113.857 253.199 117.123 253.627 117.645 252.592Z" fill="#2F2E41"/>
<path d="M125.026 257.511C127.614 257.511 129.712 255.538 129.712 253.104C129.712 250.671 127.614 248.698 125.026 248.698C122.437 248.698 120.339 250.671 120.339 253.104C120.339 255.538 122.437 257.511 125.026 257.511Z" fill="white"/>
<path d="M123.1 252.993C123.962 252.993 124.662 252.336 124.662 251.525C124.662 250.713 123.962 250.056 123.1 250.056C122.237 250.056 121.537 250.713 121.537 251.525C121.537 252.336 122.237 252.993 123.1 252.993Z" fill="#3F3D56"/>
<path d="M127.965 262.285C128.039 262.665 128.032 263.054 127.945 263.431C127.859 263.808 127.694 264.166 127.461 264.483C127.227 264.8 126.93 265.071 126.585 265.28C126.24 265.489 125.855 265.632 125.451 265.701C125.048 265.77 124.633 265.764 124.232 265.683C123.831 265.601 123.451 265.446 123.114 265.227C122.777 265.007 122.488 264.728 122.266 264.403C122.044 264.079 121.892 263.717 121.818 263.337L121.817 263.332C121.51 261.735 122.822 261.17 124.52 260.881C126.218 260.592 127.658 260.689 127.965 262.285Z" fill="white"/>
</g>
<defs>
<clipPath id="clip0">
<rect width="257.982" height="296" fill="white"/>
</clipPath>
</defs>
</svg>
